<?xml version="1.0" encoding="UTF-8"?>
<!DOCTYPE svg PUBLIC "-//W3C//DTD SVG 1.1//EN" "http://www.w3.org/Graphics/SVG/1.1/DTD/svg11.dtd">
<svg xmlns="http://www.w3.org/2000/svg" version="1.1" width="425px" height="119px" style="shape-rendering:geometricPrecision; text-rendering:geometricPrecision; image-rendering:optimizeQuality; fill-rule:evenodd; clip-rule:evenodd" xmlns:xlink="http://www.w3.org/1999/xlink">
<g><path style="opacity:1" fill="#fffdfc" d="M -0.5,-0.5 C 61.8333,-0.5 124.167,-0.5 186.5,-0.5C 186.333,37.5015 186.5,75.5015 187,113.5C 187.5,114 188,114.5 188.5,115C 194.084,115.806 199.584,115.639 205,114.5C 205.333,104.833 205.667,95.1667 206,85.5C 207.896,83.4701 210.063,81.8034 212.5,80.5C 224.349,91.5153 235.682,103.015 246.5,115C 253.826,115.5 261.159,115.666 268.5,115.5C 268.657,114.127 268.49,112.793 268,111.5C 254.349,97.0148 240.515,82.6815 226.5,68.5C 238.822,56.3455 251.322,44.3455 264,32.5C 265.009,30.9751 265.509,29.3084 265.5,27.5C 258.492,27.3337 251.492,27.5004 244.5,28C 231.721,40.7792 218.887,53.6126 206,66.5C 205.5,44.1692 205.333,21.8358 205.5,-0.5C 278.5,-0.5 351.5,-0.5 424.5,-0.5C 424.5,39.1667 424.5,78.8333 424.5,118.5C 410.167,118.5 395.833,118.5 381.5,118.5C 413.301,111.152 426.801,91.1522 422,58.5C 412.264,32.044 393.431,21.2106 365.5,26C 344.151,33.2041 332.818,48.0374 331.5,70.5C 332.968,96.6177 346.302,112.618 371.5,118.5C 247.5,118.5 123.5,118.5 -0.5,118.5C -0.5,78.8333 -0.5,39.1667 -0.5,-0.5 Z"/></g>
<g><path style="opacity:1" fill="#fc5c09" d="M 186.5,-0.5 C 192.833,-0.5 199.167,-0.5 205.5,-0.5C 205.333,21.8358 205.5,44.1692 206,66.5C 218.887,53.6126 231.721,40.7792 244.5,28C 251.492,27.5004 258.492,27.3337 265.5,27.5C 265.509,29.3084 265.009,30.9751 264,32.5C 251.322,44.3455 238.822,56.3455 226.5,68.5C 240.515,82.6815 254.349,97.0148 268,111.5C 268.49,112.793 268.657,114.127 268.5,115.5C 261.159,115.666 253.826,115.5 246.5,115C 235.682,103.015 224.349,91.5153 212.5,80.5C 210.063,81.8034 207.896,83.4701 206,85.5C 205.667,95.1667 205.333,104.833 205,114.5C 199.584,115.639 194.084,115.806 188.5,115C 188,114.5 187.5,114 187,113.5C 186.5,75.5015 186.333,37.5015 186.5,-0.5 Z"/></g>
<g><path style="opacity:1" fill="#fc5c07" d="M 381.5,118.5 C 378.167,118.5 374.833,118.5 371.5,118.5C 346.302,112.618 332.968,96.6177 331.5,70.5C 332.818,48.0374 344.151,33.2041 365.5,26C 393.431,21.2106 412.264,32.044 422,58.5C 426.801,91.1522 413.301,111.152 381.5,118.5 Z"/></g>
<g><path style="opacity:1" fill="#fc5d0b" d="M 37.5,24.5 C 50.3208,23.2738 61.4874,26.9404 71,35.5C 73.503,38.5017 75.503,41.8351 77,45.5C 78.1249,57.4461 78.6249,69.4461 78.5,81.5C 78.3333,92.1667 78.1667,102.833 78,113.5C 77.5,114 77,114.5 76.5,115C 57.7893,115.934 39.1226,115.6 20.5,114C 3.61969,107.407 -2.54698,95.2408 2,77.5C 6.85254,67.6448 14.6859,61.4781 25.5,59C 37.076,58.8222 48.576,58.3222 60,57.5C 60.8152,47.6231 56.3152,42.1231 46.5,41C 34.6374,39.4704 23.9707,42.3037 14.5,49.5C 13.1667,43.8333 13.1667,38.1667 14.5,32.5C 21.8682,28.6011 29.5349,25.9344 37.5,24.5 Z"/></g>
<g><path style="opacity:1" fill="#fc5d0b" d="M 310.5,24.5 C 316.31,24.1224 321.976,24.789 327.5,26.5C 328.495,31.7921 328.828,37.1254 328.5,42.5C 321.774,41.104 315.107,41.2706 308.5,43C 304,44.8333 300.833,48 299,52.5C 297.534,73.4331 297.034,94.4331 297.5,115.5C 291.242,115.81 285.076,115.476 279,114.5C 278.333,94.8333 278.333,75.1667 279,55.5C 283.435,38.8977 293.935,28.5644 310.5,24.5 Z"/></g>
<g><path style="opacity:1" fill="#fc5c09" d="M 91.5,27.5 C 97.7576,27.1903 103.924,27.5236 110,28.5C 110.333,47.5 110.667,66.5 111,85.5C 115.231,97.7021 123.731,102.202 136.5,99C 144.973,97.1936 150.14,92.0269 152,83.5C 152.333,65.1667 152.667,46.8333 153,28.5C 159,27.1667 165,27.1667 171,28.5C 171.667,48.5 171.667,68.5 171,88.5C 162.397,111.231 145.897,120.731 121.5,117C 104.706,113.54 94.5398,103.373 91,86.5C 90.1911,66.7899 90.3578,47.1233 91.5,27.5 Z"/></g>
<g><path style="opacity:1" fill="#fffdfc" d="M 372.5,41.5 C 385.853,40.425 395.019,46.0917 400,58.5C 405.601,75.1312 401.435,88.6312 387.5,99C 370.517,103.753 359.35,97.5862 354,80.5C 350.013,62.4794 356.18,49.4794 372.5,41.5 Z"/></g>
<g><path style="opacity:1" fill="#fffcfc" d="M 31.5,72.5 C 40.8333,72.5 50.1667,72.5 59.5,72.5C 59.5,81.5 59.5,90.5 59.5,99.5C 49.1613,99.6665 38.828,99.4998 28.5,99C 17.4436,91.9682 16.7769,83.9682 26.5,75C 28.3146,74.2432 29.9812,73.4098 31.5,72.5 Z"/></g>
</svg>
